HIERARCHY
ROOT Hips
{
	OFFSET 0.000000 0.000000 0.000000
	CHANNELS 6 Xposition Yposition Zposition Yrotation Xrotation Zrotation
	JOINT Chest
	{
		OFFSET 0.000000 -0.009281 11.569106
		CHANNELS 3 Yrotation Xrotation Zrotation
		JOINT Chest2
		{
			OFFSET -0.000000 0.016865 9.269641
			CHANNELS 3 Yrotation Xrotation Zrotation
			JOINT Chest3
			{
				OFFSET -0.000000 0.000001 8.374491
				CHANNELS 3 Yrotation Xrotation Zrotation
				JOINT Chest4
				{
					OFFSET -0.000000 0.000001 8.374493
					CHANNELS 3 Yrotation Xrotation Zrotation
					JOINT Neck
					{
						OFFSET -0.000000 0.000002 12.152554
						CHANNELS 3 Yrotation Xrotation Zrotation
						JOINT Head
						{
							OFFSET -0.000000 0.040101 7.802319
							CHANNELS 3 Yrotation Xrotation Zrotation
							End Site
							{
								OFFSET -0.000000 0.020947 14.853096
							}
						}
					}
					JOINT RightCollar
					{
						OFFSET 2.894404 0.000001 6.791374
						CHANNELS 3 Yrotation Xrotation Zrotation
						JOINT RightShoulder
						{
							OFFSET 13.574684 0.000001 0.000000
							CHANNELS 3 Yrotation Xrotation Zrotation
							JOINT RightElbow
							{
								OFFSET 23.923903 0.000002 0.000000
								CHANNELS 3 Yrotation Xrotation Zrotation
								JOINT RightWrist
								{
									OFFSET 19.846718 0.012767 0.000000
									CHANNELS 3 Yrotation Xrotation Zrotation
									End Site
									{
										OFFSET 14.973145 0.000001 0.000000
									}
								}
							}
						}
					}
					JOINT LeftCollar
					{
						OFFSET -2.894404 0.000001 6.791374
						CHANNELS 3 Yrotation Xrotation Zrotation
						JOINT LeftShoulder
						{
							OFFSET -13.574684 -0.000001 0.000000
							CHANNELS 3 Yrotation Xrotation Zrotation
							JOINT LeftElbow
							{
								OFFSET -23.923903 -0.000002 0.000000
								CHANNELS 3 Yrotation Xrotation Zrotation
								JOINT LeftWrist
								{
									OFFSET -19.846718 0.012763 0.000000
									CHANNELS 3 Yrotation Xrotation Zrotation
									End Site
									{
										OFFSET -14.973145 -0.000001 0.000000
									}
								}
							}
						}
					}
				}
			}
		}
	}
	JOINT RightHip
	{
		OFFSET 9.469263 0.004643 0.045487
		CHANNELS 3 Yrotation Xrotation Zrotation
		JOINT RightKnee
		{
			OFFSET 0.000000 0.002661 -40.478676
			CHANNELS 3 Yrotation Xrotation Zrotation
			JOINT RightAnkle
			{
				OFFSET 0.000000 0.049106 -35.224068
				CHANNELS 3 Yrotation Xrotation Zrotation
				JOINT RightToe
				{
					OFFSET -0.000001 12.539529 -6.151390
					CHANNELS 3 Yrotation Xrotation Zrotation
					End Site
					{
						OFFSET -0.000001 5.044994 -1.291870
					}
				}
			}
		}
	}
	JOINT LeftHip
	{
		OFFSET -9.469263 0.004641 0.045487
		CHANNELS 3 Yrotation Xrotation Zrotation
		JOINT LeftKnee
		{
			OFFSET 0.000000 0.002661 -40.478676
			CHANNELS 3 Yrotation Xrotation Zrotation
			JOINT LeftAnkle
			{
				OFFSET 0.000000 0.049106 -35.224068
				CHANNELS 3 Yrotation Xrotation Zrotation
				JOINT LeftToe
				{
					OFFSET -0.000001 12.539529 -6.151390
					CHANNELS 3 Yrotation Xrotation Zrotation
					End Site
					{
						OFFSET -0.000001 5.044994 -1.291870
					}
				}
			}
		}
	}
}
MOTION
Frames: 13
Frame Time: 0.016667
34.887791 -2.474684 81.854813 -3.122227 -2.603745 -88.468476 0.172886 -0.133775 -2.356919 -0.646185 -0.464723 -0.374367 -0.646184 -0.464723 -0.374368 -0.484921 -0.348147 -0.281265 4.496117 -18.552768 -10.470322 4.854044 1.691211 -17.750147 8.273292 2.107866 -2.169091 45.626552 -19.201643 -5.737844 21.895877 -36.646612 36.546840 -25.728013 38.540527 67.359742 -7.967716 3.846143 -3.972281 -44.919477 -8.360049 10.938539 -39.910383 -53.861827 -14.576228 15.262032 16.678714 -56.365047 6.745940 3.450362 -21.422473 2.014932 -0.295441 -16.367515 2.902814 -2.156680 16.405102 -0.015927 0.104019 -1.072880 8.004746 -16.502895 -14.456601 4.331520 -18.038571 6.433917 20.252044 -39.439876 -3.019934 -59.442972 62.449437 -36.468675 
35.210957 -2.913549 81.740135 -3.126143 -2.513313 -88.491603 0.026468 -0.240498 -2.576065 -0.664637 -0.452170 -0.366505 -0.664637 -0.452170 -0.366505 -0.498747 -0.338730 -0.275370 4.457598 -18.491339 -10.396298 4.800700 1.804511 -17.628932 8.290322 2.111538 -2.184883 45.683382 -19.218481 -5.759538 21.942391 -36.644621 36.509513 -25.729611 38.508286 67.328132 -7.943603 3.862820 -3.992904 -44.863691 -8.310366 10.955370 -39.899295 -53.911697 -14.613072 15.252678 16.622928 -56.400284 6.897373 2.983600 -21.401484 2.101538 0.118992 -15.881488 2.571523 -2.114941 16.788571 -0.047529 0.172637 -1.844101 8.173398 -16.171526 -14.911367 4.140884 -18.921466 6.629497 20.020878 -40.054688 -2.873742 -61.489973 63.022695 -38.451257 
35.593761 -3.262068 81.664497 -3.214763 -2.353932 -88.845004 -0.184841 -0.437729 -2.446286 -0.685927 -0.444649 -0.359852 -0.685926 -0.444649 -0.359852 -0.514704 -0.333083 -0.270387 4.417011 -18.435567 -10.323660 4.743811 1.907087 -17.510764 8.304695 2.116726 -2.205979 45.761557 -19.245479 -5.788093 21.951403 -36.651400 36.503369 -25.739150 38.479032 67.298189 -7.931800 3.907868 -4.017189 -44.776972 -8.292365 10.960645 -39.881072 -53.977096 -14.653121 15.250716 16.543458 -56.454652 7.112911 2.454894 -21.054495 2.134280 0.517561 -15.334497 1.812108 -1.867028 16.350575 0.241794 0.117340 -1.825967 8.237990 -15.725691 -14.985063 3.942956 -20.134522 6.854853 19.871935 -40.378832 -2.383656 -63.922292 63.013133 -40.566727 
36.152992 -3.338574 81.641647 -3.461494 -1.984525 -89.584304 -0.618992 -0.788061 -1.912421 -0.702128 -0.441950 -0.353048 -0.702128 -0.441950 -0.353048 -0.526848 -0.331058 -0.265294 4.371839 -18.389902 -10.254292 4.678618 1.990353 -17.399782 8.328331 2.145359 -2.222035 45.837632 -19.271287 -5.836611 21.963477 -36.695768 36.497451 -25.757229 38.476498 67.280662 -7.941278 3.963070 -4.046543 -44.673388 -8.323270 10.957900 -39.835419 -54.052860 -14.708549 15.253090 16.471782 -56.532595 6.904915 1.706080 -20.281965 2.223934 0.720948 -15.118159 1.229404 -1.380780 15.972654 0.530335 -0.134210 -1.578652 8.058460 -15.216400 -14.621154 3.851518 -21.629377 6.992241 19.720327 -40.350534 -1.382463 -66.451109 62.190389 -42.409939 
36.777126 -3.279398 81.668358 -3.573943 -1.740953 -90.376660 -0.942698 -0.991440 -1.331047 -0.707607 -0.445895 -0.344190 -0.707608 -0.445895 -0.344190 -0.530954 -0.334024 -0.258657 4.314409 -18.352710 -10.183680 4.592327 2.056769 -17.290305 8.355658 2.140084 -2.206579 45.896723 -19.253122 -5.866134 22.027785 -36.756574 36.467374 -25.776734 38.506667 67.292581 -7.955169 3.969951 -4.055566 -44.586809 -8.373703 10.905584 -39.723161 -54.110579 -14.807363 15.249726 16.402617 -56.602351 6.708614 1.110276 -19.464605 2.313897 0.792874 -15.036904 0.823105 -0.896772 15.626862 0.715627 -0.367434 -1.290615 7.903929 -14.410642 -14.109298 4.059486 -23.353552 7.010183 19.094921 -40.249055 -0.356904 -68.477735 61.407758 -43.776325 
37.363499 -3.212033 81.727303 -3.583349 -1.560420 -91.038731 -1.199745 -1.100878 -0.878229 -0.702206 -0.458988 -0.335201 -0.702205 -0.458988 -0.335201 -0.526904 -0.343857 -0.251928 4.244371 -18.316926 -10.111391 4.483687 2.119368 -17.181880 8.359332 2.063350 -2.174577 45.926670 -19.217183 -5.830719 22.117402 -36.789267 36.474566 -25.811642 38.558296 67.300627 -7.931422 3.908861 -4.025404 -44.569320 -8.417622 10.780768 -39.531588 -54.130929 -14.970414 15.262473 16.293534 -56.639354 6.533255 0.667903 -18.921248 2.419114 0.818814 -14.817870 0.440773 -0.530840 15.191550 0.863388 -0.500168 -0.866975 7.661929 -13.375443 -13.655987 4.318667 -25.184596 7.151018 18.454311 -40.221249 0.325788 -69.518608 60.614124 -44.456096 
37.887802 -3.183152 81.801437 -3.584333 -1.411028 -91.528756 -1.418452 -1.221584 -0.592141 -0.690616 -0.481058 -0.323458 -0.690616 -0.481057 -0.323458 -0.518214 -0.360429 -0.243135 4.172093 -18.278356 -10.038420 4.370906 2.186969 -17.073079 8.347759 2.015403 -2.156838 45.949794 -19.268379 -5.804946 22.167845 -36.769022 36.561470 -25.845496 38.599120 67.296741 -7.883697 3.813581 -4.007771 -44.588578 -8.423965 10.633969 -39.293716 -54.139638 -15.192849 15.294725 16.150221 -56.631083 6.397521 0.299760 -18.702750 2.522273 0.821179 -14.483966 0.092889 -0.330728 14.790005 0.939349 -0.492802 -0.454211 7.317221 -12.255922 -13.277704 4.476282 -26.970713 7.189309 17.622272 -40.201814 1.149379 -68.526735 59.298883 -43.457673 
38.323048 -3.229896 81.878868 -3.532590 -1.373592 -91.922127 -1.515379 -1.318821 -0.389297 -0.677891 -0.506257 -0.314282 -0.677891 -0.506257 -0.314282 -0.508675 -0.379346 -0.236272 4.110648 -18.246333 -9.965285 4.278697 2.243655 -16.960164 8.334350 1.999701 -2.136776 45.966774 -19.342317 -5.802538 22.194819 -36.739905 36.677399 -25.892947 38.626000 67.279843 -7.847441 3.749792 -4.008270 -44.596600 -8.419301 10.510772 -39.066483 -54.176586 -15.427444 15.353386 16.007542 -56.570349 6.398765 0.043068 -18.693410 2.628035 0.811227 -14.127236 -0.208481 -0.250316 14.619672 0.934861 -0.400407 -0.167214 7.046116 -10.971774 -12.945945 4.536878 -28.782902 7.222673 16.187740 -39.347641 2.284614 -65.033728 57.428278 -40.324440 
38.649288 -3.350825 81.951462 -3.343200 -1.405004 -92.212820 -1.535621 -1.311795 -0.271516 -0.667173 -0.525888 -0.310340 -0.667172 -0.525888 -0.310340 -0.500642 -0.394078 -0.233328 4.069226 -18.227316 -9.894225 4.223816 2.278321 -16.843967 8.304684 1.972861 -2.121626 45.974516 -19.350445 -5.777943 22.257046 -36.747172 36.753859 -25.938157 38.634958 67.261681 -7.802345 3.700851 -3.992519 -44.585286 -8.412883 10.383120 -38.898983 -54.247879 -15.636303 15.405312 15.857567 -56.484134 6.536366 -0.015559 -18.700501 2.701310 0.826803 -13.846043 -0.511739 -0.182360 14.549601 0.914333 -0.335857 0.028508 6.734359 -9.459730 -12.798383 4.515690 -30.530174 7.481957 14.742569 -36.756195 3.374511 -59.474227 54.889576 -35.400782 
38.877544 -3.523433 82.019127 -3.074170 -1.483992 -92.267427 -1.501876 -1.249891 -0.360507 -0.667664 -0.544563 -0.310333 -0.667663 -0.544563 -0.310333 -0.501021 -0.408084 -0.233344 4.064658 -18.224552 -9.829905 4.235891 2.286399 -16.727331 8.293029 2.008710 -2.141916 45.981260 -19.357700 -5.768813 22.358763 -36.796995 36.771819 -25.983872 38.632312 67.251081 -7.774949 3.711914 -4.004560 -44.523380 -8.432711 10.299285 -38.806174 -54.311725 -15.799945 15.441215 15.694805 -56.429442 6.771829 0.093296 -18.777355 2.730372 0.843081 -13.619331 -0.844513 -0.261401 14.293421 0.883634 -0.138416 0.141792 6.379122 -7.747058 -13.010511 4.452742 -32.030015 7.786900 13.883235 -33.487379 4.223649 -54.509937 52.269590 -30.802657 
39.029125 -3.706366 82.083481 -2.862332 -1.526011 -92.306455 -1.502372 -1.227555 -0.441204 -0.678612 -0.567219 -0.313396 -0.678612 -0.567219 -0.313395 -0.509245 -0.425067 -0.235674 4.092946 -18.246902 -9.769991 4.309212 2.251115 -16.607028 8.291959 2.102379 -2.160961 46.029427 -19.373056 -5.814657 22.447632 -36.875450 36.749174 -26.022008 38.621609 67.244374 -7.791765 3.776220 -4.030787 -44.409996 -8.484678 10.268670 -38.755955 -54.394418 -15.932019 15.480931 15.554834 -56.436490 6.948281 0.214233 -18.693289 2.761800 0.820945 -13.533800 -1.133673 -0.343250 14.058794 0.825212 0.041305 0.180118 5.864056 -6.019111 -13.290611 4.429046 -33.097191 7.997092 13.522662 -30.174843 4.983105 -50.670605 49.877641 -26.986933 
39.139530 -3.882509 82.142036 -2.781919 -1.557384 -92.349670 -1.514549 -1.320826 -0.493313 -0.694471 -0.597212 -0.318806 -0.694471 -0.597212 -0.318806 -0.521160 -0.447547 -0.239782 4.139761 -18.289189 -9.711737 4.417840 2.180639 -16.483033 8.266121 2.139680 -2.168803 46.131962 -19.329259 -5.830848 22.493191 -36.984767 36.719227 -26.044801 38.610185 67.252898 -7.823212 3.845560 -4.026787 -44.293620 -8.562095 10.241279 -38.631413 -54.499295 -16.121560 15.529921 15.439708 -56.510533 7.099637 0.243257 -18.524802 2.768839 0.786950 -13.584411 -1.357273 -0.455463 14.012020 0.736831 0.220120 0.155902 5.259020 -4.410726 -13.518534 4.485399 -33.822974 8.097460 13.423361 -26.519125 5.575870 -47.125341 47.543420 -23.341635 
39.207539 -4.041550 82.189903 -2.707912 -1.573451 -92.370823 -1.539631 -1.436796 -0.532339 -0.714457 -0.633613 -0.324691 -0.714457 -0.633613 -0.324691 -0.536174 -0.474831 -0.244258 4.199427 -18.340103 -9.659756 4.548719 2.095034 -16.366139 8.239616 2.143913 -2.166649 46.255141 -19.289552 -5.826975 22.500699 -37.080697 36.727191 -26.074899 38.616588 67.266660 -7.832041 3.879497 -4.003744 -44.203226 -8.629381 10.186088 -38.419848 -54.607076 -16.399972 15.592878 15.315808 -56.605029 7.237364 0.288879 -18.424483 2.749064 0.760050 -13.679906 -1.502231 -0.478005 14.024451 0.633723 0.288827 0.113763 4.588638 -2.807142 -13.747684 4.575022 -34.253798 7.999425 13.591670 -22.579656 6.147002 -43.498039 44.410918 -19.669678 
